<svg width="32" height="32" viewBox="0 0 32 32" fill="none" xmlns="http://www.w3.org/2000/svg">
<rect x="0.5" y="0.5" width="31" height="31" rx="15.5" fill="white" fill-opacity="0.08"/>
<path opacity="0.72" fill-rule="evenodd" clip-rule="evenodd" d="M15.9999 14.111C14.0355 14.111 12.4444 12.5199 12.4444 10.5555C12.4444 8.59109 14.0355 7 15.9999 7C17.9643 7 19.5554 8.59109 19.5554 10.5555C19.5554 12.5199 17.9643 14.111 15.9999 14.111Z" fill="white"/>
<path d="M8 22.2886C8.34488 18.046 11.7884 15.8887 15.9847 15.8887C20.2406 15.8887 23.7375 17.9269 23.9979 22.2886C24.0086 22.4619 23.9979 22.9997 23.3304 22.9997H8.64621C8.42399 22.9997 7.98133 22.5197 8 22.2886Z" fill="white"/>
<rect x="0.5" y="0.5" width="31" height="31" rx="15.5" stroke="#C3DDFB"/>
</svg>
